<svg width="50" height="50" viewBox="0 0 50 50" fill="none" xmlns="http://www.w3.org/2000/svg">
<path d="M12.483 22.5C12.7833 13.82 14.6289 6.19122 17.3639 1.18372C7.9891 4.15747 1.00382 12.45 0 22.5H12.483Z" fill="#FF3131"/>
<path d="M12.483 27.5H0C1.00382 37.55 7.9891 45.8425 17.3639 48.8163C14.6289 43.8088 12.7833 36.18 12.483 27.5Z" fill="#FF3131"/>
<path d="M37.5176 22.5H50.0007C48.9968 12.45 42.0116 4.15747 32.6367 1.18372C35.3718 6.19122 37.2174 13.82 37.5176 22.5Z" fill="#FF3131"/>
<path d="M37.5176 27.5C37.2174 36.18 35.3718 43.8088 32.6367 48.8163C42.0116 45.8425 48.9968 37.55 50.0007 27.5H37.5176Z" fill="#FF3131"/>
<path d="M32.4843 27.5H17.5137C18.0464 42.2687 23.1635 50 24.999 50C26.8345 50 31.9516 42.2687 32.4843 27.5Z" fill="#FF3131"/>
<path d="M24.999 0C23.1635 0 18.0464 7.73125 17.5137 22.5H32.4843C31.9516 7.73125 26.8345 0 24.999 0Z" fill="#FF3131"/>
</svg>
