<svg width="50" height="50" viewBox="0 0 50 50" fill="none" xmlns="http://www.w3.org/2000/svg">
<path d="M35.9375 43.75C34.2188 43.75 32.6562 42.6563 32.0312 40.9375C32.0312 40.7813 32.0312 40.625 31.875 40.625H17.9688C17.9688 40.7812 17.9687 40.9375 17.8125 40.9375C17.3437 42.6563 15.7812 43.75 14.0625 43.75C13.125 43.75 12.5 44.375 12.5 45.3125C12.5 46.25 13.125 46.875 14.0625 46.875H35.9375C36.875 46.875 37.5 46.25 37.5 45.3125C37.5 44.375 36.875 43.75 35.9375 43.75Z" fill="#FF3131"/>
<path d="M42.1875 4.6875H7.8125C5.15625 4.6875 3.125 6.71875 3.125 9.375V32.8125C3.125 35.4688 5.15625 37.5 7.8125 37.5H18.5937H31.25H42.1875C44.8438 37.5 46.875 35.4688 46.875 32.8125V9.375C46.875 6.71875 44.8438 4.6875 42.1875 4.6875ZM31.25 32.8125C31.25 33.4375 30.9375 33.9062 30.4688 34.2188C30.1562 34.375 30 34.375 29.6875 34.375C29.375 34.375 29.0625 34.2187 28.75 34.0625L25 31.5625L21.25 34.0625C20.7812 34.375 20.1562 34.375 19.6875 34.0625C19.0625 33.9062 18.75 33.4375 18.75 32.8125V26.0938C20.4688 27.3438 22.6562 28.125 25 28.125C27.3438 28.125 29.5312 27.3438 31.25 26.0938V32.8125ZM25 25C20.625 25 17.1875 21.5625 17.1875 17.1875C17.1875 12.8125 20.625 9.375 25 9.375C29.375 9.375 32.8125 12.8125 32.8125 17.1875C32.8125 21.5625 29.375 25 25 25Z" fill="#FF3131"/>
</svg>
