<svg width="50" height="50" viewBox="0 0 50 50" fill="none" xmlns="http://www.w3.org/2000/svg">
<path d="M24.6456 5.91975L2.27148 22.0712L2.93 22.9834L25.3041 6.83198L24.6456 5.91975Z" fill="#B0B6BC"/>
<path d="M25.3031 5.91798L24.6445 6.83032L47.0214 22.9817L47.6799 22.0694L25.3031 5.91798Z" fill="#B0B6BC"/>
<path d="M46.8533 45.5552H3.09198C1.5366 45.5552 0.275391 44.2946 0.275391 42.7386V24.2464C0.275391 22.691 1.5366 21.4298 3.09198 21.4298H46.8533C48.4087 21.4298 49.6699 22.691 49.6699 24.2464V42.7392C49.6699 44.2946 48.4087 45.5552 46.8533 45.5552Z" fill="#FF3131"/>
<path d="M24.9747 8.36774C26.0729 8.36774 26.9631 7.4775 26.9631 6.37933C26.9631 5.28117 26.0729 4.39093 24.9747 4.39093C23.8766 4.39093 22.9863 5.28117 22.9863 6.37933C22.9863 7.4775 23.8766 8.36774 24.9747 8.36774Z" fill="#D6E0EB"/>
<path d="M33.6351 40.045H27.2539C26.9504 40.045 26.7051 39.7997 26.7051 39.4962V27.5778C26.7051 27.2743 26.9504 27.029 27.2539 27.029C27.5574 27.029 27.8027 27.2743 27.8027 27.5778V38.9473H33.6351C33.9386 38.9473 34.184 39.1927 34.184 39.4962C34.184 39.7997 33.9386 40.045 33.6351 40.045Z" fill="#F2F2F2"/>
<path d="M10.6622 40.045H6.77264C6.46969 40.045 6.22381 39.7997 6.22381 39.4962C6.22381 39.1927 6.46969 38.9473 6.77264 38.9473H10.6616C11.5002 38.9473 12.1824 38.2651 12.1824 37.4265V35.6072C12.1824 34.7686 11.5002 34.0864 10.6616 34.0864H8.49596C7.05199 34.0864 5.87695 32.9113 5.87695 31.4679V29.648C5.87695 28.204 7.05199 27.0295 8.49596 27.0295H12.385C12.6879 27.0295 12.9338 27.2749 12.9338 27.5784C12.9338 27.8819 12.6879 28.1272 12.385 28.1272H8.49596C7.65735 28.1272 6.97461 28.8094 6.97461 29.648V31.4668C6.97461 32.3054 7.65735 32.9876 8.49596 32.9876H10.6616C12.1056 32.9876 13.2801 34.1627 13.2801 35.6061V37.4254C13.2806 38.87 12.1062 40.045 10.6622 40.045Z" fill="#F2F2F2"/>
<path d="M21.1405 27.029H18.8821C17.1626 27.029 15.7637 28.428 15.7637 30.1474V39.4962C15.7637 39.7997 16.0095 40.045 16.3125 40.045C16.6155 40.045 16.8613 39.7997 16.8613 39.4962V34.0858H23.1613V39.4962C23.1613 39.7997 23.4072 40.045 23.7102 40.045C24.0131 40.045 24.259 39.7997 24.259 39.4962V30.1474C24.259 28.428 22.86 27.029 21.1405 27.029ZM16.8613 32.9876V30.1474C16.8613 29.0333 17.768 28.1266 18.8821 28.1266H21.1405C22.2547 28.1266 23.1613 29.0328 23.1613 30.1474V32.9882L16.8613 32.9876Z" fill="#F2F2F2"/>
<path d="M43.5179 34.0853C43.8214 34.0853 44.0668 33.8399 44.0668 33.5364C44.0668 33.2329 43.8214 32.9876 43.5179 32.9876H37.6855V28.1266H43.5179C43.8214 28.1266 44.0668 27.8813 44.0668 27.5778C44.0668 27.2743 43.8214 27.029 43.5179 27.029H37.1367C36.8332 27.029 36.5879 27.2743 36.5879 27.5778V39.4962C36.5879 39.7997 36.8332 40.045 37.1367 40.045H43.5179C43.8214 40.045 44.0668 39.7997 44.0668 39.4962C44.0668 39.1927 43.8214 38.9473 43.5179 38.9473H37.6855V34.0858L43.5179 34.0853Z" fill="#F2F2F2"/>
</svg>
