<svg width="96" height="96" viewBox="0 0 96 96" fill="none" xmlns="http://www.w3.org/2000/svg">
<path d="M9.73633 86.606L15.1243 66.936C11.8003 61.18 10.0523 54.648 10.0543 47.958C10.0643 27.028 27.0963 10 48.0283 10C58.1863 10.004 67.7183 13.958 74.8883 21.132C82.0563 28.308 86.0043 37.844 86.0003 47.988C85.9923 68.918 68.9563 85.948 48.0283 85.948H48.0123C41.6583 85.946 35.4123 84.352 29.8663 81.326L9.73633 86.606Z" fill="white"/>
<path d="M9.73545 87.606C9.47145 87.606 9.21545 87.502 9.02545 87.31C8.77545 87.056 8.67745 86.686 8.77145 86.344L14.0495 67.072C10.7775 61.26 9.05145 54.66 9.05545 47.96C9.06345 26.476 26.5455 9 48.0275 9C58.4475 9.004 68.2374 13.062 75.5955 20.426C82.9535 27.792 87.0034 37.58 86.9995 47.988C86.9914 69.47 69.5075 86.948 48.0275 86.948C41.6495 86.946 35.3395 85.372 29.7395 82.394L9.98945 87.572C9.90545 87.596 9.82145 87.606 9.73545 87.606Z" fill="white"/>
<path d="M48.0272 10C58.1852 10.004 67.7172 13.958 74.8872 21.132C82.0552 28.308 86.0032 37.844 85.9992 47.988C85.9912 68.918 68.9552 85.948 48.0272 85.948H48.0112C41.6572 85.946 35.4112 84.352 29.8652 81.326L9.7352 86.606L15.1232 66.936C11.7992 61.18 10.0512 54.648 10.0532 47.958C10.0632 27.028 27.0952 10 48.0272 10ZM48.0272 8C25.9952 8 8.0632 25.924 8.0532 47.958C8.0512 54.692 9.7512 61.328 12.9752 67.202L7.8052 86.08C7.6172 86.77 7.8092 87.506 8.3132 88.014C8.6932 88.398 9.2072 88.608 9.7352 88.608C9.9052 88.608 10.0752 88.586 10.2432 88.542L29.6172 83.462C35.2732 86.398 41.6132 87.948 48.0112 87.95C70.0592 87.95 87.9912 70.024 88.0012 47.99C88.0052 37.312 83.8512 27.272 76.3052 19.72C68.7552 12.166 58.7132 8.004 48.0272 8Z" fill="#CFD8DC"/>
<path d="M70.3528 25.6641C64.3928 19.7001 56.4708 16.4141 48.0388 16.4121C30.6308 16.4121 16.4728 30.5641 16.4648 47.9601C16.4628 53.9221 18.1308 59.7261 21.2908 64.7521L22.0428 65.9461L18.8528 77.5881L30.7988 74.4561L31.9528 75.1401C36.7968 78.0161 42.3528 79.5361 48.0168 79.5381H48.0288C65.4248 79.5381 79.5828 65.3841 79.5888 47.9861C79.5908 39.5561 76.3128 31.6281 70.3528 25.6641Z" fill="#40C351"/>
<path fill-rule="evenodd" clip-rule="evenodd" d="M38.5365 32.09C37.8265 30.51 37.0785 30.478 36.4005 30.45C35.8465 30.426 35.2145 30.428 34.5825 30.428C33.9505 30.428 32.9225 30.666 32.0525 31.616C31.1825 32.566 28.7305 34.86 28.7305 39.528C28.7305 44.196 32.1305 48.708 32.6045 49.34C33.0785 49.972 39.1685 59.858 48.8125 63.662C56.8265 66.822 58.4585 66.194 60.1985 66.036C61.9385 65.878 65.8125 63.742 66.6025 61.526C67.3925 59.31 67.3925 57.412 67.1565 57.016C66.9185 56.62 66.2865 56.384 65.3385 55.908C64.3905 55.432 59.7245 53.138 58.8545 52.822C57.9845 52.506 57.3525 52.348 56.7185 53.298C56.0865 54.246 54.2685 56.384 53.7145 57.016C53.1605 57.65 52.6065 57.73 51.6585 57.254C50.7105 56.778 47.6545 55.778 44.0285 52.546C41.2085 50.032 39.3045 46.926 38.7505 45.976C38.1965 45.028 38.6905 44.514 39.1665 44.04C39.5925 43.614 40.1145 42.932 40.5905 42.378C41.0645 41.824 41.2225 41.428 41.5385 40.796C41.8545 40.162 41.6965 39.608 41.4585 39.134C41.2245 38.658 39.3805 33.966 38.5365 32.09Z" fill="white"/>
</svg>
