<svg width="45" height="45" viewBox="0 0 45 45" fill="none" xmlns="http://www.w3.org/2000/svg">
<g clip-path="url(#clip0_100_833)">
<path d="M44.4219 41.7329L34.2822 31.5841C37.0167 28.2531 38.6501 23.9862 38.6501 19.343C38.6501 8.67113 29.9969 0.0179901 19.325 0.0179901C8.65314 0.0179901 0 8.67113 0 19.343C0 30.0149 8.65314 38.6681 19.325 38.6681C23.9865 38.6681 28.2626 37.0164 31.6028 34.2635L41.7425 44.4032C42.9262 45.486 44.0365 44.7886 44.4219 44.4032C45.1927 43.6416 45.1927 42.4945 44.4219 41.7329ZM3.77141 19.343C3.77141 10.7541 10.7361 3.7894 19.325 3.7894C27.9139 3.7894 34.8878 10.7541 34.8878 19.343C34.8878 27.9319 27.9231 34.8967 19.3342 34.8967C10.7453 34.8967 3.77141 27.9319 3.77141 19.343Z" fill="#FF3131"/>
</g>
<defs>
<clipPath id="clip0_100_833">
<rect width="45" height="45" fill="white"/>
</clipPath>
</defs>
</svg>
