<svg width="50" height="50" viewBox="0 0 50 50" fill="none" xmlns="http://www.w3.org/2000/svg">
<path d="M44.3665 24.3856L50 20.214L45.1305 3.80264L20.0653 4.60596L17.6506 8.35577L9.06631 6.29102L0 25.0085L4.12979 28.5631L1.94932 31.9374C1.26064 33.0032 1.02822 34.2733 1.29492 35.514C1.56152 36.7546 2.29541 37.817 3.36113 38.5057C4.13877 39.0082 5.02539 39.2678 5.92988 39.2678C6.16797 39.2678 6.40713 39.2489 6.646 39.2126C6.94844 40.2881 7.62715 41.2622 8.63701 41.9148C9.43213 42.4286 10.3247 42.6739 11.2076 42.6739C11.4461 42.6739 11.6835 42.6538 11.9184 42.6186C12.2307 43.7357 12.9301 44.6889 13.9128 45.3239C14.708 45.8378 15.6005 46.0831 16.4834 46.0831C18.0433 46.0831 19.5731 45.317 20.4809 43.9121L21.1287 42.9094L24.9229 45.4248L24.9388 45.4353C25.7164 45.9378 26.603 46.1975 27.5075 46.1975C27.8425 46.1975 28.1801 46.1618 28.5153 46.0899C29.756 45.8232 30.8184 45.0893 31.507 44.0236C31.9917 43.2735 32.2371 42.4368 32.2634 41.6032C32.5064 41.589 32.7502 41.5565 32.9929 41.5044C34.2335 41.2377 35.2959 40.5038 35.9846 39.4382C36.4597 38.703 36.7174 37.8704 36.744 37.0176C36.9861 37.0032 37.2287 36.9709 37.4702 36.9189C38.7109 36.6523 39.7733 35.9186 40.462 34.8527C40.9472 34.102 41.1926 33.2642 41.2184 32.4298C42.6806 32.3449 44.0854 31.5891 44.9393 30.2673C45.6279 29.2015 45.8604 27.9314 45.5938 26.6907C45.4041 25.8083 44.9783 25.0161 44.3665 24.3856ZM21.8573 7.76973L42.7506 7.1002L46.2721 18.9683L41.5886 22.4363L23.6789 10.7752L18.5951 18.4911L18.5873 18.5031C18.1289 19.2121 17.1795 19.4161 16.4705 18.9582C15.7615 18.5001 15.5574 17.5505 16.0169 16.8394L21.8573 7.76973ZM7.2252 35.3466C6.7668 36.0557 5.81719 36.2597 5.1085 35.8017C4.76504 35.5797 4.52852 35.2373 4.44258 34.8375C4.35674 34.4377 4.43154 34.0284 4.65361 33.685L7.87344 28.7019C8.16611 28.249 8.65889 28.0023 9.16172 28.0023C9.44619 28.0023 9.73398 28.0814 9.99023 28.2469C10.3337 28.4689 10.5701 28.8111 10.6561 29.2109C10.742 29.6107 10.6671 30.0201 10.4452 30.3636L7.2252 35.3466ZM12.5011 38.7557C12.0427 39.4647 11.0932 39.6686 10.3843 39.2107C9.67529 38.7525 9.47119 37.8029 9.92939 37.094L13.1493 32.1108C13.442 31.658 13.9348 31.4112 14.4376 31.4112C14.7221 31.4112 15.0099 31.4903 15.2661 31.656C15.9751 32.1141 16.1792 33.0637 15.7211 33.7727L12.5011 38.7557ZM20.9967 37.1816L17.7768 42.1648C17.3187 42.8739 16.369 43.0777 15.6602 42.6197C15.3167 42.3978 15.0802 42.0554 14.9943 41.6556C14.9084 41.2558 14.9832 40.8465 15.2052 40.5029L18.4251 35.5198C18.6471 35.1764 18.9894 34.9399 19.3892 34.854C19.4973 34.8309 19.606 34.8193 19.7138 34.8193C20.0053 34.8193 20.291 34.903 20.5416 35.065C21.2507 35.5232 21.4548 36.4727 20.9967 37.1816ZM42.2352 28.5196C42.0132 28.8631 41.6709 29.0995 41.2711 29.1855C40.8713 29.2715 40.4619 29.1965 40.1186 28.9746L39.0503 28.2844L39.0502 28.2843L34.067 25.0644L32.3197 27.7685L33.3881 28.4589L37.3029 30.9886C37.6464 31.2106 37.8828 31.5528 37.9688 31.9526C38.0547 32.3524 37.9798 32.7618 37.7579 33.1053C37.536 33.4487 37.1936 33.6853 36.7938 33.7712C36.3939 33.857 35.9848 33.7822 35.6412 33.5604L30.6581 30.3404L28.9108 33.0445L32.8256 35.574C33.5346 36.0321 33.7387 36.9816 33.2806 37.6907C33.0586 38.0342 32.7162 38.2707 32.3165 38.3566C31.9166 38.4425 31.5074 38.3677 31.164 38.1458L26.9103 35.3973L25.163 38.1014L28.3482 40.1596C29.0572 40.6179 29.2614 41.5673 28.8032 42.2764C28.5813 42.6198 28.239 42.8564 27.8392 42.9423C27.4419 43.0276 27.0353 42.9542 26.6932 42.7356L22.8767 40.2054L23.7012 38.9292C25.1228 36.7291 24.4895 33.7825 22.2894 32.361C21.2787 31.708 20.1107 31.4898 19.0053 31.6565C18.7031 30.5801 18.0242 29.605 17.0137 28.952C16.0037 28.2994 14.8367 28.081 13.7319 28.2472C13.4195 27.1304 12.7202 26.1776 11.7378 25.5429C9.91943 24.3677 7.5915 24.598 6.03555 25.9554L3.97734 24.1839L10.8343 10.0278L15.8047 11.2232L13.3118 15.0942C11.8902 17.2943 12.5235 20.2408 14.7236 21.6624C16.9215 23.0827 19.8645 22.4518 21.2878 20.2569L24.6061 15.2206L41.7809 26.403C42.1242 26.625 42.3607 26.9673 42.4467 27.3671C42.532 27.7668 42.4571 28.1761 42.2352 28.5196Z" fill="#FF3131"/>
</svg>
