<svg width="45" height="45" viewBox="0 0 45 45" fill="none" xmlns="http://www.w3.org/2000/svg">
<path fill-rule="evenodd" clip-rule="evenodd" d="M11.5683 10.0252L18.6538 31.2818C18.9489 32.167 18.5482 33.1343 17.7136 33.5517L16.0833 34.3667C11.8604 36.4781 6.88991 36.4781 2.66706 34.3667L1.03675 33.5517C0.202175 33.1343 -0.198561 32.167 0.0965057 31.2818L6.96079 10.6888C6.01324 10.8491 5.06563 11.0239 4.11795 11.2135C3.10254 11.4166 2.11476 10.758 1.91167 9.74262C1.70859 8.72721 2.36711 7.73943 3.38252 7.53634C9.12829 6.38719 14.8762 5.75605 20.625 5.64334V3.74997C20.625 2.71446 21.4644 1.875 22.5 1.875C23.5356 1.875 24.375 2.71446 24.375 3.74997V5.64334C30.1237 5.75605 35.8717 6.38719 41.6175 7.53634C42.6328 7.73943 43.2915 8.72721 43.0882 9.74262C42.8852 10.758 41.8974 11.4166 40.8821 11.2135C39.9343 11.0239 38.9867 10.8491 38.0392 10.6888L44.9034 31.2818C45.1986 32.167 44.7979 33.1343 43.9633 33.5517L42.333 34.3667C38.1101 36.4781 33.1395 36.4781 28.9166 34.3667L27.2865 33.5517C26.4517 33.1343 26.0511 32.167 26.3462 31.2818L33.4316 10.0252C30.4123 9.66601 27.3936 9.45565 24.375 9.39404V39.3745H30C31.0354 39.3745 31.8748 40.2139 31.8748 41.2495C31.8748 42.285 31.0354 43.1245 30 43.1245H15.0001C13.9646 43.1245 13.1251 42.285 13.1251 41.2495C13.1251 40.2139 13.9646 39.3745 15.0001 39.3745H20.625V9.39404C17.6065 9.45565 14.5876 9.66601 11.5683 10.0252ZM40.8317 30.9248L35.6248 15.3041L30.4179 30.9248L30.5938 31.0127C33.7609 32.5963 37.4887 32.5963 40.656 31.0127L40.8317 30.9248ZM9.37517 15.3041L4.16826 30.9248L4.34407 31.0127C7.51123 32.5963 11.2391 32.5963 14.4063 31.0127L14.5821 30.9248L9.37517 15.3041Z" fill="#FF3131"/>
</svg>
